<?xml version="1.0" standalone="no"?>
<!DOCTYPE svg PUBLIC "-//W3C//DTD SVG 20010904//EN"
 "http://www.w3.org/TR/2001/REC-SVG-20010904/DTD/svg10.dtd">
<svg version="1.0" xmlns="http://www.w3.org/2000/svg"
 width="612.000000pt" height="612.000000pt" viewBox="0 0 612.000000 612.000000"
 preserveAspectRatio="xMidYMid meet">

<g transform="translate(0.000000,612.000000) scale(0.100000,-0.100000)"
fill="#000000" stroke="none">
<path d="M0 3060 l0 -3060 3060 0 3060 0 0 3060 0 3060 -3060 0 -3060 0 0
-3060z m3348 2818 c35 -30 39 -65 31 -313 -63 -1867 -90 -2813 -85 -2990 3
-110 24 -634 46 -1164 39 -953 40 -964 21 -1006 -27 -62 -90 -97 -185 -103
-39 -2 -91 1 -115 8 -56 15 -120 74 -130 120 -4 19 0 188 10 375 17 336 38
789 60 1285 6 140 11 372 12 515 1 253 0 266 -36 505 -92 596 -121 848 -138
1202 -25 494 32 932 159 1226 81 188 188 345 245 360 35 9 80 1 105 -20z
m-1360 -305 c70 -33 224 -180 291 -278 70 -100 127 -224 158 -343 22 -84 26
-119 27 -257 1 -122 -3 -177 -17 -233 -56 -233 -121 -350 -335 -604 -63 -75
-96 -144 -119 -248 -26 -123 -22 -654 10 -1485 37 -912 60 -1663 52 -1701 -14
-75 -89 -123 -190 -124 -33 0 -77 5 -97 10 -46 13 -95 68 -104 117 -9 48 9
635 61 2008 24 643 28 880 16 1023 -19 230 -50 310 -177 452 -129 144 -197
254 -252 412 -153 433 -22 904 332 1191 68 56 104 76 159 87 59 12 124 2 185
-27z m2157 -85 c3 -7 10 -247 17 -532 12 -472 15 -520 30 -530 13 -8 21 -7 29
1 8 8 16 171 26 530 9 317 19 523 25 531 17 19 48 14 58 -10 5 -13 15 -255 22
-538 13 -514 13 -515 34 -518 21 -3 22 1 28 135 3 76 11 313 17 528 6 240 15
395 21 402 17 21 48 15 57 -9 4 -13 14 -248 20 -523 7 -275 15 -508 18 -518 3
-13 13 -17 31 -15 l27 3 8 390 c4 215 10 455 15 535 l7 145 27 3 c22 3 28 -2
32 -20 8 -35 39 -887 40 -1088 1 -210 -3 -228 -110 -482 -121 -288 -119 -276
-118 -658 1 -179 9 -593 18 -920 9 -327 23 -829 31 -1115 20 -721 20 -802 -5
-842 -31 -52 -90 -76 -174 -71 -86 4 -129 30 -157 93 -18 41 -18 66 11 1141
16 604 35 1277 41 1494 6 217 8 426 5 464 -10 111 -42 219 -122 407 -109 261
-109 261 -108 544 2 267 31 1031 39 1046 9 13 55 11 60 -3z"/>
</g>
</svg>
