<?xml version="1.0" standalone="no"?>
<!DOCTYPE svg PUBLIC "-//W3C//DTD SVG 20010904//EN"
 "http://www.w3.org/TR/2001/REC-SVG-20010904/DTD/svg10.dtd">
<svg version="1.0" xmlns="http://www.w3.org/2000/svg"
 width="225.000000pt" height="225.000000pt" viewBox="0 0 225.000000 225.000000"
 preserveAspectRatio="xMidYMid meet">

<g transform="translate(0.000000,225.000000) scale(0.100000,-0.100000)"
fill="#000000" stroke="none">
<path d="M0 1125 l0 -1125 1125 0 1125 0 0 1125 0 1125 -1125 0 -1125 0 0
-1125z m1389 430 c17 -20 31 -41 31 -49 0 -7 -38 -50 -85 -96 -65 -63 -89 -80
-97 -72 -19 19 -37 14 -68 -20 l-29 -33 55 -56 c47 -48 53 -57 40 -68 -22 -19
-47 -6 -89 44 l-38 45 -53 -57 c-37 -40 -57 -55 -69 -50 -30 11 -18 37 38 89
54 49 55 51 38 70 -10 11 -41 31 -71 46 -94 46 -179 163 -158 218 6 15 32 -7
139 -114 73 -73 137 -132 143 -132 6 0 23 14 39 30 26 27 28 33 16 52 -11 18
-9 24 21 55 83 88 134 133 149 133 9 0 31 -16 48 -35z m71 -180 c0 -21 -11
-45 -21 -45 -5 0 -4 9 3 19 10 17 9 24 -7 42 l-20 22 23 -12 c12 -6 22 -18 22
-26z m-58 13 c-16 -16 -15 -23 5 -44 12 -12 13 -16 4 -13 -25 9 -36 36 -22 53
8 9 16 16 19 16 3 0 1 -5 -6 -12z m-572 -48 c12 0 25 10 30 23 8 17 9 18 7 3
-1 -10 -10 -24 -19 -30 -22 -14 -52 2 -55 30 -2 15 -1 14 7 -3 5 -13 18 -23
30 -23z m-92 14 c12 -8 22 -20 22 -26 0 -6 -10 -2 -23 10 -52 49 -147 12 -147
-56 0 -34 34 -82 58 -83 11 0 13 -2 4 -6 -7 -3 -19 0 -27 7 -11 9 -19 8 -37
-4 -28 -20 -62 -21 -78 -1 -15 18 -10 47 10 52 12 4 12 3 2 -5 -8 -5 -12 -18
-10 -28 4 -24 46 -30 72 -11 15 11 17 17 7 35 -32 59 15 132 86 132 21 0 49
-7 61 -16z m903 -13 c31 -31 37 -67 18 -103 -10 -18 -8 -24 7 -35 26 -19 68
-13 72 11 5 26 -20 40 -35 19 -7 -9 -15 -14 -18 -11 -3 3 1 13 10 22 20 19 55
5 55 -22 0 -41 -47 -55 -89 -26 -17 12 -26 13 -34 5 -6 -6 -14 -11 -18 -11 -4
0 6 13 22 29 56 56 29 128 -52 141 l-44 7 38 2 c30 1 45 -5 68 -28z m-111 16
c0 -2 -10 -12 -22 -23 l-23 -19 19 23 c18 21 26 27 26 19z m-820 -51 c14 -18
10 -58 -8 -64 -11 -3 -11 0 -1 16 16 25 5 52 -21 52 -26 0 -37 -27 -21 -52 10
-16 10 -19 -1 -16 -33 11 -15 78 22 78 10 0 23 -7 30 -14z m891 -3 c11 -15 11
-16 -1 -5 -34 30 -76 -1 -51 -39 6 -11 7 -19 1 -19 -5 0 -12 11 -16 25 -12 47
39 75 67 38z m-827 -8 c3 -8 1 -15 -4 -15 -6 0 -10 7 -10 15 0 8 2 15 4 15 2
0 6 -7 10 -15z m716 0 c0 -8 -4 -15 -10 -15 -5 0 -7 7 -4 15 4 8 8 15 10 15 2
0 4 -7 4 -15z m-630 -2 c-8 -3 -30 -19 -47 -36 -18 -17 -33 -27 -33 -22 0 14
63 64 80 64 13 -1 13 -1 0 -6z m68 -5 c30 -30 1 -98 -41 -98 -25 0 -57 28 -57
49 0 10 5 7 13 -9 14 -28 51 -38 73 -20 20 17 18 67 -3 79 -10 6 -13 11 -7 11
5 0 15 -5 22 -12z m422 8 c0 -2 -7 -7 -16 -10 -8 -3 -12 -2 -9 4 6 10 25 14
25 6z m113 -46 c32 -28 66 -50 75 -51 11 0 12 -2 5 -6 -16 -6 -70 27 -103 62
-14 15 -34 31 -45 35 -13 6 -15 9 -5 9 8 1 41 -22 73 -49z m-128 -40 c22 -18
58 -8 72 20 9 17 13 20 13 8 0 -23 -27 -48 -52 -48 -31 0 -58 29 -57 59 l2 26
4 -27 c2 -14 10 -32 18 -38z m270 41 c-3 -6 -11 -11 -16 -11 -5 0 -4 6 3 14
14 16 24 13 13 -3z m-854 -41 c-13 -11 -31 -20 -40 -20 -9 0 0 8 19 19 46 24
50 24 21 1z m-73 -72 l267 -2 -280 -6 c-154 -3 -283 -4 -288 -2 -14 6 5 23 20
18 8 -3 135 -7 281 -8z m1200 0 c-3 -7 -10 -13 -16 -12 -7 1 -135 3 -284 5
l-273 4 275 5 c151 3 281 7 288 8 8 1 12 -4 10 -10z m-1165 -80 c-35 -17 -29
-45 12 -58 39 -13 55 -34 47 -62 -11 -43 -102 -39 -102 4 0 19 2 19 25 -6 21
-22 28 -25 45 -16 31 17 24 39 -17 57 -36 14 -53 29 -53 46 0 12 39 47 53 46
6 0 2 -5 -10 -11z m-245 -10 c17 -17 15 -55 -4 -66 -13 -7 -11 -13 14 -40 18
-19 25 -32 16 -32 -7 0 -25 15 -40 34 -15 19 -33 32 -41 29 -17 -6 -17 -50 0
-56 6 -3 -4 -6 -23 -6 -23 0 -30 2 -22 8 10 6 13 27 10 75 l-3 66 41 0 c22 0
45 -5 52 -12z m172 4 c0 -4 -18 -6 -40 -4 -39 4 -40 3 -40 -28 0 -30 2 -32 30
-28 19 3 30 0 30 -7 0 -7 -11 -10 -30 -7 -28 4 -30 2 -30 -27 0 -29 2 -31 39
-31 22 0 42 5 44 13 3 7 6 5 6 -5 1 -16 -9 -18 -66 -18 -41 0 -63 4 -55 9 10
6 13 27 10 75 l-3 66 53 0 c28 0 52 -3 52 -8z m127 -7 c9 -24 -1 -27 -15 -5
-8 13 -8 20 -2 20 6 0 13 -7 17 -15z m168 6 c3 -6 -9 -7 -30 -4 l-35 6 0 -66
c0 -43 4 -67 13 -70 6 -3 -4 -5 -23 -5 -19 0 -29 2 -22 5 8 3 12 27 12 69 0
61 -1 64 -24 64 -13 0 -27 -6 -29 -12 -3 -8 -6 -6 -6 5 -1 15 9 17 68 17 39 0
72 -4 76 -9z m112 -61 c14 -36 30 -68 36 -72 7 -4 -4 -8 -23 -8 -20 0 -30 4
-23 8 7 4 10 17 6 30 -7 30 -59 31 -68 2 -3 -11 -3 -24 0 -30 4 -6 -5 -10 -22
-9 -15 1 -21 3 -12 6 9 2 23 28 33 58 17 55 32 77 20 30 -5 -21 -3 -25 16 -25
18 0 20 4 15 23 -4 12 -11 26 -16 32 -13 13 -11 27 3 23 6 -2 22 -33 35 -68z
m98 3 l0 -68 35 0 35 0 0 68 c0 61 2 67 20 66 11 0 14 -3 8 -6 -9 -3 -13 -26
-13 -64 0 -51 -3 -61 -24 -75 -22 -13 -29 -14 -53 -2 -25 12 -28 19 -31 73 -2
33 -9 63 -15 67 -7 5 -2 8 13 8 24 0 25 -2 25 -67z m159 0 c-1 -41 3 -71 10
-75 6 -4 -1 -8 -17 -8 -23 0 -26 3 -19 18 10 19 9 103 -2 120 -4 8 0 12 11 12
16 0 18 -8 17 -67z m70 48 c14 -15 15 -24 6 -40 -6 -12 -15 -21 -21 -21 -6 0
-1 -13 11 -30 25 -36 57 -39 71 -7 10 22 10 22 5 0 -2 -12 1 -24 8 -27 6 -2
-8 -5 -31 -5 -36 -1 -45 4 -67 32 -30 39 -32 47 -12 47 16 0 29 27 20 42 -3 5
-16 13 -28 18 -21 9 -21 9 0 9 11 1 29 -8 38 -18z m146 -38 c11 -32 23 -63 25
-70 2 -6 21 -14 42 -16 27 -3 21 -4 -22 -5 -33 -1 -55 2 -49 6 21 14 -2 47
-37 53 l-34 6 32 2 c31 1 32 2 21 32 -8 23 -13 27 -19 17 -10 -15 -12 -7 -3
16 11 28 22 17 44 -41z m140 7 c23 -28 45 -48 49 -46 4 3 8 -9 9 -26 2 -30 1
-29 -50 28 l-53 58 -6 -50 -6 -49 -1 62 c-1 38 -7 63 -14 66 -7 3 -3 6 9 6 14
1 35 -16 63 -49z m67 44 c-3 -3 -12 -4 -19 -1 -8 3 -5 6 6 6 11 1 17 -2 13 -5z
m163 -2 c0 -5 -13 -7 -30 -4 l-30 4 0 -65 c0 -43 4 -67 13 -70 6 -3 -4 -5 -23
-5 -19 0 -29 2 -22 5 8 3 12 27 12 69 0 61 -1 64 -24 64 -13 0 -27 -6 -29 -12
-3 -8 -6 -6 -6 5 -1 15 9 17 69 17 39 0 70 -4 70 -8z m-930 -216 c0 -2 -7 -6
-15 -10 -8 -3 -15 -1 -15 4 0 6 7 10 15 10 8 0 15 -2 15 -4z m17 -28 c-3 -7
-5 -2 -5 12 0 14 2 19 5 13 2 -7 2 -19 0 -25z m36 7 c-7 -21 -13 -19 -13 6 0
11 4 18 10 14 5 -3 7 -12 3 -20z m27 5 c0 -11 -4 -20 -9 -20 -6 0 -9 9 -8 20
1 11 5 20 9 20 4 0 8 -9 8 -20z m30 10 c-13 -9 -13 -11 0 -20 13 -8 12 -10 -2
-10 -10 0 -18 6 -18 13 0 17 10 27 24 27 6 0 4 -5 -4 -10z m51 -4 c-9 -11 -9
-15 1 -19 8 -4 7 -6 -4 -6 -12 -1 -18 6 -18 19 0 12 7 20 16 20 13 0 14 -3 5
-14z m149 -6 c0 -11 -7 -20 -15 -20 -8 0 -15 9 -15 20 0 11 7 20 15 20 8 0 15
-9 15 -20z m-86 -5 c3 -9 0 -15 -8 -15 -7 0 -13 7 -13 15 0 8 4 15 8 15 4 0 9
-7 13 -15z m44 -2 c-2 -9 -10 -19 -18 -21 -13 -5 -13 -3 0 13 9 11 10 16 3 11
-7 -4 -13 -2 -13 3 0 6 7 11 16 11 9 0 14 -7 12 -17z m82 -3 c0 -11 -5 -20
-11 -20 -6 0 -8 7 -5 16 3 8 2 12 -4 9 -6 -3 -10 -1 -10 4 0 6 7 11 15 11 8 0
15 -9 15 -20z m-905 -11 c-8 -12 -35 -12 -35 0 0 11 22 20 33 14 4 -2 5 -9 2
-14z m555 11 c0 -5 -7 -10 -16 -10 -8 0 -12 5 -9 10 3 6 10 10 16 10 5 0 9 -4
9 -10z m915 -20 c-5 -8 -11 -8 -21 1 -12 10 -12 14 -2 20 16 10 33 -5 23 -21z
m-1225 -70 c-13 -9 -13 -11 0 -20 8 -5 12 -10 8 -10 -3 0 -13 -3 -22 -6 -11
-4 -16 0 -16 14 0 19 12 30 35 31 6 0 3 -4 -5 -9z m77 2 c7 -4 10 -17 6 -31
-4 -17 -8 -19 -14 -9 -7 11 -11 10 -19 -2 -8 -12 -10 -10 -10 11 0 36 12 47
37 31z m56 -13 c-4 -12 0 -25 8 -31 11 -7 10 -8 -5 -6 -27 4 -33 58 -6 58 4 0
6 -9 3 -21z m69 14 c-6 -2 -10 -9 -6 -14 3 -5 0 -9 -5 -9 -12 0 -14 13 -4 23
3 4 11 7 17 6 6 0 5 -3 -2 -6z m55 -40 c-3 -10 -5 -2 -5 17 0 19 2 27 5 18 2
-10 2 -26 0 -35z m143 38 c0 -6 -4 -13 -10 -16 -5 -3 -10 -12 -10 -18 0 -7 4
-6 10 3 5 8 12 11 17 7 9 -9 -17 -28 -29 -21 -6 4 -5 29 1 52 2 7 21 1 21 -7z
m123 -4 c3 10 5 3 6 -16 1 -33 0 -34 -18 -17 -18 17 -19 17 -24 -1 -3 -10 -5
-3 -6 16 -1 33 0 34 18 17 18 -17 19 -17 24 1z m82 -25 c6 -22 5 -23 -14 -13
-12 7 -21 9 -21 5 0 -4 -3 -5 -6 -2 -3 4 0 16 6 28 13 24 24 18 35 -18z m57
26 c-9 -9 -15 -9 -24 0 -9 9 -7 12 12 12 19 0 21 -3 12 -12z m58 -38 c5 0 10
12 12 28 2 20 5 23 10 10 8 -20 -15 -54 -30 -44 -7 4 -11 19 -11 34 l2 27 4
-27 c2 -16 8 -28 13 -28z m95 18 c1 -19 -2 -24 -10 -18 -7 6 -15 7 -18 3 -4
-3 -7 6 -7 21 0 21 4 27 18 24 11 -2 17 -13 17 -30z m80 -26 c-3 -3 -8 4 -12
16 -5 21 -6 21 -19 5 -16 -22 -18 -9 -3 19 11 21 12 21 26 -6 8 -15 12 -31 8
-34z m59 6 c7 -5 5 -8 -5 -8 -17 0 -32 44 -20 56 3 3 8 -5 10 -18 1 -12 8 -26
15 -30z m-654 20 c0 -16 -3 -19 -11 -11 -6 6 -8 16 -5 22 11 17 16 13 16 -11z
m-88 -20 c-9 -9 -15 -9 -24 1 -11 10 -10 11 5 6 10 -5 17 -2 17 6 0 7 3 9 7 6
4 -4 1 -13 -5 -19z"/>
<path d="M1255 1490 c-38 -38 -65 -70 -59 -70 5 0 41 32 79 70 38 39 65 70 59
70 -5 0 -41 -31 -79 -70z"/>
<path d="M1285 1470 c-38 -38 -67 -72 -64 -74 6 -6 139 122 139 135 0 14 -2
13 -75 -61z"/>
<path d="M1305 1440 c-38 -38 -63 -70 -54 -70 14 0 139 119 139 133 0 17 -20
2 -85 -63z"/>
<path d="M400 1016 c0 -40 -1 -40 35 -26 37 14 32 54 -7 58 -26 3 -28 1 -28
-32z"/>
<path d="M700 710 c0 -5 5 -10 10 -10 6 0 10 5 10 10 0 6 -4 10 -10 10 -5 0
-10 -4 -10 -10z"/>
<path d="M1440 710 c0 -5 5 -10 10 -10 6 0 10 5 10 10 0 6 -4 10 -10 10 -5 0
-10 -4 -10 -10z"/>
</g>
</svg>
