<?xml version="1.0" standalone="no"?>
<!DOCTYPE svg PUBLIC "-//W3C//DTD SVG 20010904//EN"
 "http://www.w3.org/TR/2001/REC-SVG-20010904/DTD/svg10.dtd">
<svg version="1.0" xmlns="http://www.w3.org/2000/svg"
 width="1000.000000pt" height="1000.000000pt" viewBox="0 0 1000.000000 1000.000000"
 preserveAspectRatio="xMidYMid meet">

<g transform="translate(0.000000,1000.000000) scale(0.100000,-0.100000)"
fill="#000000" stroke="none">
<path d="M1293 8869 c-14 -14 -18 -145 -7 -186 6 -22 10 -23 123 -23 64 0 221
-3 349 -7 l232 -6 0 -3599 0 -3598 -349 0 -348 0 -7 -46 c-3 -26 -6 -75 -6
-110 0 -51 3 -64 17 -68 10 -2 812 -1 1783 2 l1765 7 0 105 0 105 -352 3 -353
2 0 1814 0 1814 68 16 c355 80 727 12 957 -175 114 -93 161 -171 209 -349 54
-199 54 -214 66 -1065 l10 -796 30 -222 c38 -284 54 -366 95 -492 122 -374
364 -645 655 -735 229 -71 522 -113 890 -126 260 -9 606 25 781 76 36 11 72
20 79 20 8 0 51 18 96 40 61 30 104 61 169 121 180 171 310 425 396 774 29
118 79 434 79 499 l0 33 -77 7 c-142 12 -127 24 -142 -116 -31 -297 -140 -567
-287 -711 -161 -157 -338 -122 -435 87 -69 148 -75 225 -84 996 -4 316 -10
656 -15 755 -13 269 -53 442 -149 640 -224 459 -694 757 -1291 815 -63 7 -117
13 -119 15 -2 2 -1 10 2 18 4 10 33 16 99 21 484 35 1043 241 1317 483 168
147 311 443 375 768 40 207 49 331 43 598 -4 202 -9 265 -31 382 -48 264 -116
463 -212 624 -54 93 -206 262 -293 329 -207 157 -670 312 -1169 392 -325 51
-322 51 -1632 60 -679 4 -1703 11 -2275 15 -848 6 -1042 5 -1052 -6z m3422
-214 c398 -60 710 -249 848 -514 53 -101 65 -153 94 -430 25 -237 27 -285 26
-656 -1 -305 -5 -430 -17 -525 -9 -69 -21 -165 -27 -215 -41 -362 -232 -662
-537 -844 -224 -134 -525 -199 -795 -173 -67 7 -132 15 -144 18 l-23 6 0 1659
0 1658 35 7 c147 27 391 31 540 9z"/>
</g>
</svg>
